HIERARCHY
ROOT Hips
{
	OFFSET 0.00000 0.00000 0.00000
	CHANNELS 6 Xposition Yposition Zposition Zrotation Yrotation Xrotation 
	JOINT LHipJoint
	{
		OFFSET 0 0 0
		CHANNELS 3 Zrotation Yrotation Xrotation
		JOINT LeftHip
		{
			OFFSET 3.13874 -1.57224 1.49786
			CHANNELS 3 Zrotation Yrotation Xrotation
			JOINT LeftKnee
			{
				OFFSET 2.10955 -5.79594 0.00000
				CHANNELS 3 Zrotation Yrotation Xrotation
				JOINT LeftAnkle
				{
					OFFSET 2.41843 -6.64458 0.00000
					CHANNELS 3 Zrotation Yrotation Xrotation
					JOINT LeftToe
					{
						OFFSET 0.04713 -0.12948 1.66229
						CHANNELS 3 Zrotation Yrotation Xrotation
						End Site
						{
							OFFSET 0.00000 -0.00000 0.85167
						}
					}
				}
			}
		}
	}
	JOINT RHipJoint
	{
		OFFSET 0 0 0
		CHANNELS 3 Zrotation Yrotation Xrotation
		JOINT RightHip
		{
			OFFSET -3.13988 -1.57224 1.49786
			CHANNELS 3 Zrotation Yrotation Xrotation
			JOINT RightKnee
			{
				OFFSET -2.15006 -5.90725 0.00000
				CHANNELS 3 Zrotation Yrotation Xrotation
				JOINT RightAnkle
				{
					OFFSET -2.34496 -6.44273 0.00000
					CHANNELS 3 Zrotation Yrotation Xrotation
					JOINT RightToe
					{
						OFFSET -0.08699 -0.23900 1.55223
						CHANNELS 3 Zrotation Yrotation Xrotation
						End Site
						{
							OFFSET -0.00000 -0.00000 0.80281
						}
					}
				}
			}
		}
	}
	JOINT lowerback
	{
		OFFSET 0 0 0
		CHANNELS 3 Zrotation Yrotation Xrotation
		JOINT Chest
		{
			OFFSET 0.01292 1.96517 -0.16495
			CHANNELS 3 Zrotation Yrotation Xrotation
			JOINT Chest2
			{
				OFFSET 0.02122 1.88666 0.19706
				CHANNELS 3 Zrotation Yrotation Xrotation
				JOINT lowerneck
				{
					OFFSET 0 0 0
					CHANNELS 3 Zrotation Yrotation Xrotation
					JOINT Neck
					{
						OFFSET -0.01683 1.81591 0.07903
						CHANNELS 3 Zrotation Yrotation Xrotation
						JOINT Head
						{
							OFFSET 0.00815 1.74013 -0.47700
							CHANNELS 3 Zrotation Yrotation Xrotation
							End Site
							{
								OFFSET -0.00204 1.83225 -0.16933
							}
						}
					}
				}
				JOINT LeftCollar
				{
					OFFSET 0 0 0
					CHANNELS 3 Zrotation Yrotation Xrotation
					JOINT LeftShoulder
					{
						OFFSET 3.38482 1.41533 0.19802
CHANNELS 3 Zrotation Xrotation Yrotation
						JOINT LeftElbow
						{
OFFSET 0 -4.327120 0.000000
CHANNELS 3 Zrotation Xrotation Yrotation
							JOINT LeftWrist
							{
OFFSET 0 -3.285870 -0.000000
CHANNELS 3 Zrotation Xrotation Yrotation
								JOINT lhand
								{
									OFFSET 0 0 0
CHANNELS 3 Zrotation Xrotation Yrotation
									JOINT LFingers
									{
OFFSET 0 -0.433160 -0.000000
CHANNELS 3 Zrotation Xrotation Yrotation
										End Site
										{
OFFSET 0 -0.349220 -0.000000
										}
									}
								}
								JOINT LThumb
								{
OFFSET 0 0.000000 0.000000
CHANNELS 3 Zrotation Xrotation Yrotation
									End Site
									{
OFFSET 0 -0.354560 0.354560
									}
								}
							}
						}
					}
				}
				JOINT RightCollar
				{
					OFFSET 0 0 0
					CHANNELS 3 Zrotation Yrotation Xrotation
					JOINT RightShoulder
					{
						OFFSET -3.09725 1.62858 -0.14144
CHANNELS 3 Zrotation Xrotation Yrotation
						JOINT RightElbow
						{
OFFSET 0 -4.291040 0.000000
CHANNELS 3 Zrotation Xrotation Yrotation
							JOINT RightWrist
							{
OFFSET 0 -3.227200 -0.000000
CHANNELS 3 Zrotation Xrotation Yrotation
								JOINT rhand
								{
									OFFSET 0 0 0
CHANNELS 3 Zrotation Xrotation Yrotation
									JOINT RFingers
									{
OFFSET 0 -0.543620 -0.000000
CHANNELS 3 Zrotation Xrotation Yrotation
										End Site
										{
OFFSET 0 -0.438280 -0.000000
										}
									}
								}
								JOINT RThumb
								{
OFFSET 0 0.000000 0.000000
CHANNELS 3 Zrotation Xrotation Yrotation
									End Site
									{
OFFSET 0 -0.444970 0.444970
									}
								}
							}
						}
					}
				}
			}
		}
	}
}
MOTION
Frames: 11
Frame Time: 0.008333333333333333
-3.224642 16.014731 2.169173 -132.543551 -77.747237 145.998803 0.000000 0.000000 0.000000 -14.661349 -24.371887 -17.347211 0.321942 3.646718 10.084799 0.794947 11.459865 -24.613249 10.010991 -17.415985 -59.524909 0.000000 0.000000 0.000000 30.262335 -0.937646 -3.418823 -2.103836 -9.063470 26.005196 -0.217376 -5.110973 -12.157513 -0.834540 5.814045 -16.249531 2.284982 1.974276 8.507312 2.230515 3.104271 -8.290126 0.573805 1.298884 -13.914085 -0.882765 4.115664 -12.479789 -5.358737 5.440057 50.304499 -2.340806 -0.114971 24.668517 0.000000 0.000000 0.000000 4.027387 8.056055 -27.679904 12.391488 -20.388180 2.237487 28.360375 26.138846 -33.376236 0.000000 0.000000 0.000000 -7.125000 0.000000 0.000000 -5.526474 66.722117 2.896366 0.000000 0.000000 0.000000 -24.483344 6.813151 67.739873 -14.308027 -23.172833 -2.948498 -19.112696 -4.517296 25.373995 0.000000 0.000000 0.000000 7.125000 0.000000 0.000000 11.539600 56.257411 -3.227125
-3.348507 16.010662 2.202807 -134.660553 -77.780315 147.881331 0.000000 0.000000 0.000000 -15.690109 -23.941314 -16.421663 0.309013 3.573404 9.879589 0.864806 11.051318 -24.813124 9.895044 -17.349999 -59.136280 0.000000 0.000000 0.000000 29.359679 -0.915508 -4.652118 -2.527980 -9.878294 28.592487 -0.157868 -6.113834 -12.126472 -0.934915 6.158484 -17.245099 1.717882 1.982199 8.563034 2.190718 3.030950 -8.296813 0.859550 1.318592 -13.983996 -0.802852 4.130334 -12.250281 -5.387228 5.421694 50.235361 -2.369247 -0.109434 24.486024 0.000000 0.000000 0.000000 4.241876 7.823485 -30.094917 12.815694 -21.015809 2.387324 28.347168 24.928147 -33.077952 0.000000 0.000000 0.000000 -7.125000 0.000000 0.000000 -5.334840 66.411452 2.759447 0.000000 0.000000 0.000000 -24.620066 5.934925 67.386903 -14.682396 -23.700577 -3.097836 -20.585223 -3.830621 24.987320 0.000000 0.000000 0.000000 7.125000 0.000000 0.000000 9.807272 56.176449 -2.704329
-3.472535 15.997650 2.233752 -136.969603 -77.858008 149.935185 0.000000 0.000000 0.000000 -16.829624 -23.421268 -15.540001 0.299263 3.517540 9.723220 0.958192 10.385435 -24.980288 9.727567 -17.253659 -58.573647 0.000000 0.000000 0.000000 28.471093 -0.791214 -5.764575 -2.926768 -10.569409 30.847303 -0.158682 -7.669404 -13.856465 -0.975883 6.278990 -17.599324 1.244414 1.956795 8.583171 2.095326 2.919248 -8.195961 1.040287 1.311489 -13.894121 -1.052071 4.192268 -12.572090 -5.089333 5.497883 50.306622 -2.136562 -0.107107 24.668703 0.000000 0.000000 0.000000 4.553151 7.249830 -32.456560 13.220987 -21.609387 2.534586 28.481526 23.870568 -32.459015 0.000000 0.000000 0.000000 -7.125000 0.000000 0.000000 -4.738703 65.812380 2.386224 0.000000 0.000000 0.000000 -24.742932 4.716349 67.130364 -15.153585 -24.358689 -3.289624 -21.193930 -3.909046 25.202171 0.000000 0.000000 0.000000 7.125000 0.000000 0.000000 9.264499 56.521820 -2.633006
-3.589966 15.979098 2.263225 -138.848107 -77.932056 151.563596 0.000000 0.000000 0.000000 -17.852503 -22.894003 -14.834360 0.299817 3.520695 9.732007 1.000435 9.980564 -24.974545 9.664710 -17.216877 -58.361593 0.000000 0.000000 0.000000 27.763816 -0.522129 -6.761641 -3.275267 -11.125285 32.706503 -0.188345 -9.799081 -16.677039 -1.130632 6.753389 -18.986872 0.787962 1.947593 8.549614 2.008183 2.829538 -8.181354 1.218372 1.310539 -13.872349 -0.950831 4.253086 -12.558118 -5.046549 5.517029 50.391268 -2.139804 -0.085309 24.762930 0.000000 0.000000 0.000000 4.977157 6.753928 -34.962679 13.599380 -22.158740 2.675313 28.902666 23.135729 -31.896266 0.000000 0.000000 0.000000 -7.125000 0.000000 0.000000 -3.832893 65.350306 1.887635 0.000000 0.000000 0.000000 -24.731043 3.748993 66.552523 -15.594498 -24.967139 -3.473434 -21.609923 -4.077380 24.798605 0.000000 0.000000 0.000000 7.125000 0.000000 0.000000 8.651662 56.194616 -2.394935
-3.700944 15.959648 2.290751 -140.743998 -78.093149 153.194304 0.000000 0.000000 0.000000 -18.913865 -22.505961 -14.176569 0.305234 3.552044 9.819718 0.995042 9.953989 -24.909386 9.724746 -17.252105 -58.564356 0.000000 0.000000 0.000000 27.068288 -0.152692 -7.581584 -3.538761 -11.519264 34.052722 -0.334032 -11.615533 -20.461098 -1.047395 6.487223 -18.211875 0.444081 1.884918 8.586786 1.890703 2.684150 -8.092248 1.309369 1.271643 -13.796842 -1.031317 4.305807 -12.742549 -4.962005 5.610501 50.404565 -2.055838 -0.063807 24.857650 0.000000 0.000000 0.000000 5.350184 5.890794 -37.142978 13.894168 -22.582867 2.787464 29.458884 22.801092 -31.459787 0.000000 0.000000 0.000000 -7.125000 0.000000 0.000000 -2.855236 65.053197 1.386671 0.000000 0.000000 0.000000 -24.659778 2.659303 65.795883 -16.021534 -25.549108 -3.655633 -22.393745 -4.295230 23.796708 0.000000 0.000000 0.000000 7.125000 0.000000 0.000000 7.407222 55.325581 -1.886117
-3.809475 15.940555 2.312702 -143.144950 -78.314546 155.340598 0.000000 0.000000 0.000000 -20.091370 -22.163457 -13.509081 0.308530 3.570847 9.872325 1.011855 9.776266 -24.896643 9.760874 -17.273198 -58.686247 0.000000 0.000000 0.000000 26.299740 0.365244 -8.303457 -3.706692 -11.759424 34.886267 -0.598765 -12.929006 -24.402115 -0.671908 5.221980 -14.546754 -0.247326 1.880970 8.573849 1.772189 2.561725 -8.176527 1.591362 1.274879 -13.913641 -0.718241 4.266487 -12.181090 -5.175126 5.460320 50.330849 -2.270983 -0.079045 24.543082 0.000000 0.000000 0.000000 5.715837 5.310962 -39.182048 14.186395 -23.000452 2.900650 29.865569 22.560257 -30.931280 0.000000 0.000000 0.000000 -7.125000 0.000000 0.000000 -2.036486 64.613109 0.966877 0.000000 0.000000 0.000000 -24.437787 2.166106 64.719167 -16.528091 -26.230880 -3.876748 -23.078536 -4.367702 23.450591 0.000000 0.000000 0.000000 7.125000 0.000000 0.000000 6.556165 55.105523 -1.631464
-3.915708 15.922038 2.328713 -145.104459 -78.436240 157.050556 0.000000 0.000000 0.000000 -21.081886 -21.775498 -12.883006 0.314189 3.603398 9.963396 1.051015 9.465662 -24.956287 9.729307 -17.254835 -58.579922 0.000000 0.000000 0.000000 25.771213 1.052532 -8.851003 -3.753828 -11.825353 35.116849 -0.931935 -13.791723 -27.900512 -0.345239 3.770990 -10.433692 -0.876274 1.902846 8.537348 1.678657 2.484099 -8.279899 1.857668 1.295007 -14.038159 -0.409536 4.239656 -11.589642 -5.280256 5.280700 50.298270 -2.428664 -0.097231 24.249446 0.000000 0.000000 0.000000 6.087802 4.683261 -40.972144 14.438892 -23.358592 2.999874 29.732466 22.342969 -30.786879 0.000000 0.000000 0.000000 -7.125000 0.000000 0.000000 -2.131448 64.423286 1.002640 0.000000 0.000000 0.000000 -24.076086 1.815679 63.606177 -17.081150 -26.964530 -4.124121 -23.823875 -4.418066 23.613289 0.000000 0.000000 0.000000 7.125000 0.000000 0.000000 5.831747 55.427659 -1.496386
-4.019201 15.909182 2.345545 -145.378222 -78.455199 157.015411 0.000000 0.000000 0.000000 -21.658546 -21.411282 -12.218668 0.321218 3.642797 10.073919 1.107618 9.138164 -25.145239 9.666508 -17.218025 -58.367940 0.000000 0.000000 0.000000 25.701015 1.711968 -9.096557 -3.661063 -11.695039 34.661718 -1.354140 -13.714404 -30.695206 -0.126691 2.258542 -6.222644 -0.763440 1.827377 8.604494 1.611974 2.396976 -8.113606 1.736417 1.240162 -13.868722 -0.586464 4.291541 -11.909556 -5.086865 5.367730 50.343404 -2.267551 -0.083820 24.419253 0.000000 0.000000 0.000000 6.357033 3.406009 -42.075705 14.612399 -23.603314 3.069055 29.547769 22.498811 -31.030584 0.000000 0.000000 0.000000 -7.125000 0.000000 0.000000 -2.499270 64.627961 1.187799 0.000000 0.000000 0.000000 -23.766346 0.800999 63.129496 -17.567912 -27.600011 -4.347386 -24.755779 -5.072230 23.509518 0.000000 0.000000 0.000000 7.125000 0.000000 0.000000 4.806616 55.511452 -1.242046
-4.116837 15.900806 2.358416 -145.311718 -78.527482 156.683070 0.000000 0.000000 0.000000 -22.109522 -21.129075 -11.568200 0.321269 3.643260 10.075125 1.147939 8.893105 -25.272082 9.644282 -17.204904 -58.292755 0.000000 0.000000 0.000000 25.709035 2.339961 -9.408786 -3.498952 -11.461438 33.853054 -1.724573 -13.298367 -32.636045 -0.042354 1.280184 -3.520746 -0.947283 1.814964 8.587306 1.607917 2.352322 -8.114260 1.844825 1.237261 -13.865801 -0.393234 4.191555 -11.584686 -5.079285 5.089082 50.314799 -2.357202 -0.145182 24.225189 0.000000 0.000000 0.000000 6.487142 2.486770 -42.862860 14.834232 -23.914539 3.158479 29.815067 23.205798 -31.523846 0.000000 0.000000 0.000000 -7.125000 0.000000 0.000000 -2.426555 65.222780 1.186372 0.000000 0.000000 0.000000 -23.424560 0.402332 62.535058 -18.078794 -28.257287 -4.586846 -24.947192 -5.620609 23.560547 0.000000 0.000000 0.000000 7.125000 0.000000 0.000000 4.620523 55.605325 -1.204442
-4.208852 15.894489 2.366669 -145.559841 -78.687984 156.755810 0.000000 0.000000 0.000000 -22.613439 -20.999004 -10.936523 0.315067 3.608145 9.976755 1.160720 8.842517 -25.332704 9.692825 -17.233394 -58.456696 0.000000 0.000000 0.000000 25.620124 2.886693 -9.958674 -3.313807 -11.185475 32.909136 -1.972854 -13.114511 -33.937481 -0.030256 1.122752 -3.086522 -1.077254 1.747042 8.590326 1.572695 2.241599 -7.981348 1.901264 1.196826 -13.709309 -0.711838 4.198804 -12.163217 -4.659209 5.049905 50.506356 -2.078062 -0.186967 24.638567 0.000000 0.000000 0.000000 6.412709 1.096554 -42.964483 14.949855 -24.076151 3.205440 30.342816 24.366817 -32.097763 0.000000 0.000000 0.000000 -7.125000 0.000000 0.000000 -2.058769 65.978981 1.041149 0.000000 0.000000 0.000000 -23.066968 -0.301586 61.799296 -18.627072 -28.951473 -4.849593 -24.618028 -5.902974 23.814364 0.000000 0.000000 0.000000 7.125000 0.000000 0.000000 5.061498 55.803890 -1.344780
-4.299952 15.893313 2.379566 -145.020803 -78.842147 156.051790 0.000000 0.000000 0.000000 -23.010402 -20.996307 -10.210333 0.305435 3.553042 9.822571 1.164520 8.894328 -25.401806 9.771731 -17.279364 -58.722589 0.000000 0.000000 0.000000 25.664314 3.151397 -10.658317 -3.128987 -10.899619 31.943625 -2.301553 -12.517037 -35.314477 -0.012576 0.663610 -1.823950 -1.041047 1.688576 8.571049 1.567438 2.168040 -7.940788 1.890449 1.158419 -13.643429 -0.806618 4.196197 -12.298689 -4.449999 4.957681 50.690729 -1.978314 -0.228599 24.877317 0.000000 0.000000 0.000000 6.241380 0.019734 -42.643100 15.083116 -24.261598 3.260016 30.723270 25.203353 -32.013713 0.000000 0.000000 0.000000 -7.125000 0.000000 0.000000 -1.503176 66.001430 0.762631 0.000000 0.000000 0.000000 -22.682969 -0.661844 61.162341 -19.138671 -29.589510 -5.099735 -24.360850 -5.962678 23.887627 0.000000 0.000000 0.000000 7.125000 0.000000 0.000000 5.361849 55.827188 -1.427325
